<?xml version="1.0" standalone="no"?>
<!DOCTYPE svg PUBLIC "-//W3C//DTD SVG 20010904//EN"
 "http://www.w3.org/TR/2001/REC-SVG-20010904/DTD/svg10.dtd">
<svg version="1.0" xmlns="http://www.w3.org/2000/svg"
 width="276.000000pt" height="276.000000pt" viewBox="0 0 276.000000 276.000000"
 preserveAspectRatio="xMidYMid meet">
<metadata>
Created by potrace 1.11, written by Peter Selinger 2001-2013
</metadata>
<g transform="translate(0.000000,276.000000) scale(0.100000,-0.100000)"
fill="#000000" stroke="none">
<path d="M0 2700 c0 -23 21 -25 84 -11 71 17 66 31 -12 31 -65 0 -72 -2 -72
-20z"/>
<path d="M605 2672 c-98 -58 -213 -106 -278 -116 -7 -1 -18 -5 -25 -9 -23 -15
-112 -25 -112 -13 0 7 -3 7 -8 1 -4 -5 -16 -11 -27 -12 -20 -2 -104 12 -138
23 -15 5 -18 1 -15 -23 3 -27 5 -28 78 -37 49 -6 104 -5 160 3 100 13 187 42
333 111 35 17 38 17 47 1 5 -11 41 -27 97 -42 129 -35 299 -33 441 3 103 27
132 28 132 2 0 -17 112 -51 192 -58 81 -8 197 18 296 67 l83 40 27 -25 c90
-84 220 -113 379 -83 97 18 233 77 271 118 l23 25 77 -38 c42 -21 87 -41 100
-45 21 -6 23 -4 20 20 -3 24 -13 31 -87 60 -46 19 -97 43 -112 54 -33 25 -43
26 -36 7 4 -10 1 -13 -9 -9 -17 6 -19 -18 -3 -34 9 -9 -13 -23 -83 -57 -114
-55 -212 -71 -336 -55 -72 10 -179 61 -194 93 -6 15 -17 26 -24 26 -7 0 -46
-18 -87 -40 -108 -59 -204 -83 -297 -77 -70 5 -190 40 -190 55 0 4 26 22 58
40 96 54 113 72 66 72 -23 0 -131 -47 -159 -70 -16 -13 -212 -58 -305 -70 -81
-11 -90 -10 -205 20 -65 17 -120 32 -122 33 -1 2 18 18 42 37 86 68 42 69 -70
2z"/>
<path d="M417 2629 c7 -7 15 -10 18 -7 3 3 -2 9 -12 12 -14 6 -15 5 -6 -5z"/>
<path d="M136 2558 c3 -5 10 -6 15 -3 13 9 11 12 -6 12 -8 0 -12 -4 -9 -9z"/>
<path d="M905 2470 c-4 -6 4 -19 17 -30 20 -17 21 -21 8 -30 -22 -15 -30 -12
-30 9 0 11 -4 23 -10 26 -14 9 -12 -29 3 -44 10 -10 7 -16 -13 -31 -28 -22
-88 -47 -114 -48 -5 0 -13 -6 -17 -14 -5 -7 -9 -8 -9 -2 0 6 -13 9 -30 6 -16
-2 -28 -7 -26 -11 2 -3 -39 -3 -93 0 -79 6 -103 11 -132 31 -58 39 -85 62 -97
83 -29 50 -30 51 -52 25 -24 -28 -21 -55 12 -108 26 -42 33 -36 13 11 -8 20
-15 47 -15 59 1 19 4 17 21 -15 11 -21 33 -46 49 -55 l29 -18 -31 -12 c-19 -7
-27 -15 -22 -23 4 -7 3 -9 -4 -5 -6 3 -13 2 -17 -4 -8 -12 -65 -13 -65 -1 0 5
-22 20 -48 34 l-48 25 -33 -38 c-18 -21 -44 -41 -59 -45 -15 -4 -30 -12 -34
-18 -4 -7 -12 -6 -24 4 -10 8 -15 9 -11 3 4 -7 0 -14 -8 -18 -28 -10 -17 -36
15 -36 34 0 110 28 110 41 0 5 13 15 29 23 23 12 31 13 47 2 32 -22 86 -27
134 -13 25 8 44 19 43 24 -1 6 10 14 25 18 15 4 31 12 35 18 6 8 7 5 3 -6 -13
-41 119 -60 250 -36 76 14 146 43 208 87 l50 35 50 -19 c68 -24 156 -22 231 6
33 12 72 25 87 27 20 4 25 9 20 22 -5 14 -4 14 12 2 9 -8 15 -20 12 -27 -3 -8
5 -19 17 -25 12 -7 27 -18 32 -25 21 -27 124 -56 205 -57 77 0 79 -1 67 -21
-13 -24 -15 -199 -3 -424 6 -132 21 -216 33 -184 4 10 8 10 21 0 11 -10 66
-13 221 -12 189 2 206 3 221 21 13 16 15 60 15 301 0 278 -1 282 -23 302 -27
26 -24 56 -26 -293 l-1 -279 -55 -4 c-30 -2 -62 -4 -70 -4 -8 1 -74 1 -147 1
l-132 -1 -5 53 c-7 76 -26 433 -26 493 0 52 9 63 55 68 6 1 13 5 16 10 4 5 12
5 18 1 9 -5 9 -11 -1 -23 -12 -15 -11 -16 5 -3 10 8 16 20 13 28 -7 17 -1 17
18 -2 26 -26 170 -32 258 -10 40 11 81 25 90 33 15 12 19 12 33 -2 14 -14 42
-21 68 -17 4 0 7 -4 7 -9 0 -6 10 -15 23 -20 35 -14 5 -11 -46 4 -26 8 -47 12
-47 10 0 -9 61 -34 120 -49 77 -20 145 -13 194 20 31 21 35 22 50 7 9 -9 16
-11 16 -5 0 6 -6 13 -12 16 -7 2 -10 7 -7 11 3 3 20 -1 38 -10 18 -9 55 -22
82 -29 42 -11 49 -11 49 1 0 8 -10 14 -26 14 -15 0 -23 4 -18 11 3 6 15 8 26
6 12 -3 18 -1 15 6 -2 6 -19 16 -38 21 -19 5 -36 12 -39 15 -3 3 -21 13 -40
22 -35 16 -37 16 -78 -12 -24 -16 -49 -29 -57 -29 -7 0 -17 -5 -21 -11 -4 -8
-28 -10 -68 -6 -83 8 -102 13 -143 38 -36 22 -36 23 -15 38 68 51 105 76 114
73 5 -1 7 2 4 7 -11 18 -47 19 -81 1 -19 -10 -32 -13 -28 -6 3 6 -6 -1 -21
-16 -17 -17 -57 -36 -100 -49 -39 -12 -78 -25 -87 -29 -24 -13 -129 -2 -156
15 -13 9 -23 13 -23 10 0 -3 -9 -1 -21 5 -20 11 -20 12 -2 33 18 22 18 22 -2
6 -22 -18 -56 -33 -67 -31 -5 1 -8 -3 -8 -9 0 -8 -11 -9 -32 -5 -21 4 -28 3
-19 -3 10 -6 5 -11 -20 -17 -46 -11 -190 -5 -206 8 -7 5 -19 8 -27 5 -8 -3
-16 -3 -18 1 -2 4 -24 26 -49 50 l-46 43 -74 -30 c-41 -16 -90 -32 -110 -36
-21 -3 -43 -12 -49 -20 -21 -25 -150 -2 -150 25 0 6 15 4 35 -4 21 -9 37 -11
40 -5 4 5 -15 18 -41 29 -25 11 -59 29 -74 40 -18 13 -31 17 -35 10z m-656
-206 c10 -9 -35 -3 -49 6 -11 8 -7 9 15 4 17 -4 32 -8 34 -10z m2158 2 c3 -3
-5 -6 -20 -6 -14 0 -28 4 -31 9 -7 10 41 8 51 -3z m-700 -73 c-3 -10 -5 -2 -5
17 0 19 2 27 5 18 2 -10 2 -26 0 -35z m0 -125 c-3 -7 -5 -2 -5 12 0 14 2 19 5
13 2 -7 2 -19 0 -25z m20 -390 c-3 -8 -6 -5 -6 6 -1 11 2 17 5 13 3 -3 4 -12
1 -19z"/>
<path d="M2662 2465 c3 -3 27 -13 52 -20 40 -12 46 -12 46 0 0 8 -1 15 -2 16
-24 6 -101 9 -96 4z"/>
<path d="M1950 2446 c0 -2 7 -7 16 -10 8 -3 12 -2 9 4 -6 10 -25 14 -25 6z"/>
<path d="M2651 2426 c34 -20 109 -32 109 -18 0 10 -20 16 -95 27 -40 6 -40 6
-14 -9z"/>
<path d="M1080 2391 c0 -5 9 -11 20 -14 24 -6 27 8 4 17 -21 8 -24 8 -24 -3z"/>
<path d="M2185 2301 c-3 -5 -1 -12 5 -16 5 -3 10 1 10 9 0 18 -6 21 -15 7z"/>
<path d="M1769 2257 c11 -14 12 -20 3 -26 -16 -10 -27 -316 -14 -414 10 -76
20 -105 29 -81 3 9 13 8 35 -3 41 -21 259 -14 281 9 12 12 16 63 20 266 3 139
3 252 1 252 -3 0 -14 -8 -25 -19 -19 -17 -20 -32 -22 -242 l-2 -224 -127 -2
c-110 -1 -127 1 -133 15 -4 9 -9 109 -12 222 l-6 205 126 1 c101 0 128 4 141
17 9 8 16 19 16 23 0 4 -66 4 -146 0 -112 -5 -150 -4 -163 6 -14 12 -15 11 -2
-5z m94 -24 c-13 -2 -33 -2 -45 0 -13 2 -3 4 22 4 25 0 35 -2 23 -4z"/>
<path d="M2007 2163 c-12 -14 -105 -200 -112 -223 -9 -34 -18 -49 -27 -44 -6
4 -5 -3 2 -16 7 -12 8 -20 2 -16 -10 6 -23 -39 -14 -48 8 -9 32 22 48 61 9 21
29 65 44 98 15 33 33 78 40 100 7 22 19 53 27 68 17 34 12 44 -10 20z"/>
<path d="M1913 2157 c-15 -18 -63 -117 -57 -117 2 0 -2 -10 -10 -23 -10 -15
-12 -27 -6 -37 8 -13 10 -13 10 1 0 9 6 21 13 27 10 8 13 6 13 -9 0 -10 -4
-19 -9 -19 -5 0 -6 -7 -3 -16 3 -8 2 -12 -3 -9 -5 3 -12 1 -16 -5 -4 -6 -11
-8 -16 -5 -5 4 -6 -2 -2 -11 4 -11 8 -13 11 -6 2 7 10 12 18 12 8 0 17 7 20
15 4 8 9 13 14 10 4 -2 12 7 18 20 7 16 8 26 1 30 -5 4 -9 3 -8 -2 3 -20 -2
-34 -10 -28 -20 11 -9 57 34 147 14 29 5 47 -12 25z"/>
<path d="M750 2135 c-102 -7 -227 -15 -278 -18 -52 -3 -97 -9 -100 -12 -14
-14 -1 -697 14 -744 2 -7 -1 -20 -8 -28 -9 -11 -9 -16 3 -24 8 -5 17 -9 20 -9
8 0 2 277 -6 290 -11 18 16 92 47 128 45 51 139 142 148 142 5 0 10 -10 10
-22 l1 -23 19 24 20 23 0 -96 c0 -76 4 -105 19 -135 11 -21 17 -47 14 -59 -4
-17 -1 -20 17 -15 12 3 24 13 26 22 3 9 14 34 24 56 11 22 24 52 29 68 6 15
15 27 21 27 5 0 10 13 10 29 0 60 24 45 58 -34 11 -28 12 -28 7 -3 -8 40 -43
118 -54 118 -5 0 -12 -9 -16 -20 -3 -11 -11 -19 -17 -17 -6 1 -18 -11 -28 -28
-18 -33 -18 -31 -27 -75 -3 -17 -10 -33 -14 -36 -5 -3 -9 -14 -9 -25 0 -27
-19 -24 -30 7 -12 30 -12 169 -1 237 4 26 4 50 -1 53 -17 11 -78 -39 -163
-134 -48 -53 -91 -106 -96 -117 -5 -12 -8 22 -9 90 -1 61 -3 154 -6 208 -3 53
-4 97 -2 97 134 10 633 39 635 37 0 -1 3 -50 5 -110 l3 -107 -27 0 c-42 0 -72
-15 -88 -45 -17 -32 -17 -119 -1 -139 9 -11 4 -15 -24 -20 -27 -5 -34 -11 -32
-27 4 -26 27 -49 27 -27 0 21 21 28 83 28 82 0 118 15 170 70 54 57 87 66 87
22 0 -79 -151 -149 -300 -140 -52 4 -70 2 -70 -7 0 -7 7 -16 16 -19 20 -8 24
-8 23 2 -3 20 3 22 23 8 12 -9 30 -16 40 -16 10 0 18 -4 18 -9 0 -16 -41 -61
-56 -61 -8 0 -14 -7 -14 -15 0 -8 -5 -15 -11 -15 -17 0 -35 23 -48 63 -11 33
-31 43 -31 16 0 -6 5 -7 10 -4 6 3 10 -3 10 -14 0 -11 11 -32 24 -48 18 -21
21 -33 15 -50 -5 -13 -13 -23 -18 -23 -22 0 -121 -193 -121 -235 0 -25 -6 -33
-29 -42 -26 -9 -30 -17 -40 -80 -9 -51 -9 -97 -1 -178 18 -184 23 -195 96
-195 l44 0 0 -40 c0 -29 4 -40 15 -40 11 0 15 11 15 43 0 48 6 59 37 76 31 16
40 14 65 -14 37 -43 192 -74 273 -55 46 10 52 7 61 -39 l7 -34 -154 6 c-85 4
-183 9 -219 12 l-65 6 39 -21 c33 -19 37 -25 31 -48 -7 -33 -7 -267 1 -340 5
-43 10 -53 28 -57 22 -5 52 -2 60 6 3 3 6 63 6 135 2 235 14 316 39 250 11
-28 29 -36 81 -36 21 0 41 -3 43 -7 3 -5 2 -26 -2 -48 -5 -35 -10 -40 -36 -43
-53 -5 -76 -12 -69 -23 3 -6 -2 -16 -12 -23 -16 -12 -15 -13 7 -19 13 -3 39
-4 57 -1 18 2 31 0 28 -5 -3 -5 -24 -8 -47 -7 -22 1 -42 -1 -45 -6 -3 -5 -10
-5 -16 -2 -6 4 -8 2 -5 -3 8 -12 67 -23 67 -12 0 13 62 4 70 -11 4 -8 11 -36
14 -62 8 -54 32 -69 69 -45 22 14 23 13 25 -11 3 -39 22 -53 57 -44 29 8 30
11 36 78 4 38 7 110 8 161 1 109 6 123 37 123 22 0 24 -4 24 -51 0 -27 -3 -48
-8 -45 -13 8 7 -217 21 -231 6 -7 37 -15 67 -18 30 -2 50 -1 44 3 -12 8 -24
248 -16 314 l4 38 64 0 c89 0 91 18 2 22 -60 2 -73 6 -76 21 -3 13 3 17 28 17
52 0 98 27 111 67 9 29 8 37 -7 55 -16 16 -27 19 -61 14 -40 -5 -43 -4 -49 22
-12 56 -16 61 -47 71 l-32 11 3 74 c2 47 -2 93 -12 127 -9 29 -16 74 -16 101
l0 48 38 -15 c98 -42 253 1 286 77 31 73 40 117 28 143 -14 31 -61 53 -105 48
-18 -1 -67 -6 -109 -9 l-76 -6 5 39 c7 52 -26 128 -61 144 -14 7 -29 24 -35
39 -12 34 -63 87 -96 100 -15 6 -39 10 -55 10 -26 0 -29 4 -32 36 -4 50 -28
64 -68 41 -22 -14 -30 -15 -31 -5 0 7 -2 87 -2 178 l-2 165 -105 1 c-58 1
-188 -4 -290 -11z m-113 -257 c-3 -8 -6 -5 -6 6 -1 11 2 17 5 13 3 -3 4 -12 1
-19z m442 -34 c33 -27 40 -44 18 -44 -7 0 -45 -16 -85 -35 l-72 -34 0 45 c0
24 7 56 16 69 23 35 81 34 123 -1z m-317 -126 c-7 -7 -12 -8 -12 -2 0 14 12
26 19 19 2 -3 -1 -11 -7 -17z m580 -40 c20 -12 46 -34 57 -49 l22 -29 -26 -10
c-15 -6 -30 -10 -34 -10 -5 0 -20 -14 -34 -31 -48 -58 -44 -150 8 -199 23 -22
24 -25 8 -42 -30 -34 -4 -31 39 4 43 34 97 55 176 68 39 6 55 -1 32 -15 -5 -3
-10 -21 -10 -40 0 -25 8 -40 32 -60 27 -23 39 -26 82 -23 28 3 59 8 70 13 36
16 13 -28 -31 -59 -37 -26 -54 -30 -126 -34 -70 -4 -89 -1 -130 18 -29 14 -46
28 -43 35 8 23 -5 24 -27 4 -12 -11 -32 -22 -44 -25 -13 -4 -23 -10 -23 -15 0
-12 17 -11 39 1 13 6 24 5 39 -6 17 -11 20 -21 15 -49 -3 -19 2 -73 12 -119
25 -117 15 -188 -31 -234 -31 -31 -35 -32 -50 -18 -11 12 -35 16 -83 16 -111
0 -180 49 -215 154 -18 53 -21 92 -6 101 6 3 10 11 10 16 0 6 -4 7 -10 4 -5
-3 -10 4 -11 17 -1 15 -5 9 -11 -17 -22 -93 22 -226 91 -268 17 -11 21 -17 10
-17 -63 -1 -148 130 -150 228 -1 44 -3 51 -9 32 -21 -67 7 -161 70 -233 22
-25 40 -50 40 -56 0 -14 7 -14 106 0 96 12 158 2 160 -26 1 -11 3 -24 4 -30 1
-5 1 -22 0 -38 -2 -32 19 -44 48 -28 38 20 70 -11 38 -38 -16 -13 -94 -28
-118 -23 -15 3 -18 14 -18 57 0 88 -13 97 -151 100 -148 3 -187 21 -236 111
-23 42 -27 64 -31 156 l-4 107 40 46 c63 72 73 122 58 310 -10 133 -5 141 98
170 63 18 86 31 120 64 46 46 67 48 138 9z m103 -118 c3 -6 -1 -13 -10 -16
-21 -9 -55 -76 -55 -111 0 -15 7 -40 14 -55 14 -26 13 -28 -3 -28 -80 0 -94
171 -18 208 28 14 64 15 72 2z m-673 -451 c27 -30 27 -31 17 -111 -14 -110 -3
-204 28 -240 8 -9 12 -21 9 -26 -6 -10 -93 1 -106 14 -26 26 -35 348 -11 377
19 24 33 21 63 -14z m83 -97 c-7 -68 13 -183 36 -207 15 -15 11 -22 -22 -35
-49 -21 -54 -7 -57 160 l-3 150 26 0 27 0 -7 -68z m668 -244 c9 -8 18 -30 20
-53 3 -38 4 -40 32 -36 64 7 78 5 89 -11 8 -14 6 -22 -11 -40 -18 -17 -37 -23
-88 -26 l-65 -4 0 53 c0 30 -7 67 -15 83 -22 42 0 62 38 34z m-55 -79 l3 -47
-41 0 c-39 -1 -40 0 -40 33 0 24 7 39 23 50 36 25 52 15 55 -36z m-472 -151
c-3 -24 -5 -116 -5 -205 -1 -153 -2 -163 -20 -163 -27 0 -31 25 -31 228 l0
182 31 0 c31 0 31 0 25 -42z m174 8 c-14 -14 -22 -2 -14 18 5 14 9 15 15 4 4
-7 4 -17 -1 -22z m183 -43 c9 -5 1 -328 -8 -343 -13 -21 -33 -9 -39 23 -3 17
-8 101 -12 185 l-7 153 29 -7 c16 -4 33 -9 37 -11z m167 -315 c-3 -4 -11 -4
-18 1 -18 11 -18 120 -1 211 l14 75 5 -140 c3 -77 3 -143 0 -147z m-365 192
c-7 -11 -75 -9 -75 3 0 4 18 7 41 7 24 0 38 -4 34 -10z"/>
<path d="M1102 1510 c-38 -16 -65 -92 -59 -163 9 -105 64 -145 144 -106 62 30
103 112 88 177 -3 15 -18 42 -33 61 -23 26 -37 34 -73 37 -24 2 -54 -1 -67 -6z
m120 -40 c29 -29 30 -34 26 -95 -3 -55 -8 -69 -33 -95 -16 -16 -44 -33 -63
-36 -29 -6 -38 -2 -65 24 -38 39 -49 119 -23 174 31 65 107 78 158 28z"/>
<path d="M1111 1444 c-47 -59 -35 -138 23 -159 25 -8 31 -6 57 23 36 40 39 96
8 136 -26 33 -62 34 -88 0z"/>
<path d="M1326 572 c-3 -5 1 -9 9 -9 8 0 12 4 9 9 -3 4 -7 8 -9 8 -2 0 -6 -4
-9 -8z"/>
<path d="M2009 1981 c-24 -23 -53 -78 -72 -135 -20 -58 -21 -67 -4 -45 7 9 17
17 22 17 6 1 10 5 10 10 0 14 28 73 32 68 3 -2 -1 -14 -7 -26 -15 -27 -6 -37
16 -19 16 13 16 12 5 -9 -15 -28 -5 -47 15 -27 21 20 47 85 34 85 -5 0 -10 -4
-10 -10 0 -5 -4 -10 -9 -10 -6 0 -3 16 5 36 11 25 12 40 5 47 -7 7 -12 5 -17
-6 -3 -9 -10 -17 -15 -17 -5 0 -4 12 2 26 12 33 9 36 -12 15z"/>
<path d="M66 1870 c-4 -36 -19 -82 -36 -116 -17 -31 -30 -63 -29 -73 0 -12 2
-11 9 4 4 12 19 38 33 58 14 20 28 60 32 87 8 55 11 59 31 33 12 -17 13 -17
14 -1 0 26 -22 68 -35 68 -8 0 -15 -23 -19 -60z"/>
<path d="M448 1893 c7 -3 16 -2 19 1 4 3 -2 6 -13 5 -11 0 -14 -3 -6 -6z"/>
<path d="M490 1895 c0 -10 29 -24 34 -17 3 6 -3 12 -14 15 -11 3 -20 4 -20 2z"/>
<path d="M2577 1863 c-3 -5 -5 -39 -6 -77 -1 -37 -8 -114 -16 -170 -14 -87
-24 -118 -75 -221 -32 -66 -62 -133 -65 -150 -4 -18 5 -5 22 30 15 34 44 83
63 110 20 28 44 69 54 92 10 23 22 41 26 38 13 -8 39 63 56 156 14 79 18 90
26 69 19 -51 40 -156 39 -197 0 -50 15 -65 29 -28 5 14 14 23 20 20 13 -8 13
69 -1 118 -15 54 -20 42 -7 -17 7 -34 7 -51 -1 -59 -12 -12 -10 -16 -35 88 -9
39 -25 82 -36 97 -11 15 -20 36 -20 47 0 11 -13 29 -29 40 -32 23 -38 25 -44
14z"/>
<path d="M129 1810 c-3 -8 -2 -33 2 -55 12 -58 11 -153 -2 -239 -12 -79 -6
-124 11 -96 6 9 10 10 10 3 0 -6 -4 -14 -9 -17 -5 -3 -7 -16 -5 -29 3 -17 1
-15 -11 8 l-16 30 4 -28 c2 -15 0 -30 -4 -33 -12 -7 -11 -75 1 -94 8 -12 10
-9 10 13 0 20 5 27 19 27 10 0 22 7 25 16 9 23 8 26 -6 18 -8 -5 -7 0 2 11 11
14 11 17 1 11 -9 -6 -8 -1 3 16 16 25 30 161 17 174 -3 3 -7 10 -7 15 -1 5 -2
12 -4 17 -1 4 -1 37 0 74 1 36 -3 74 -9 85 -6 10 -14 34 -19 53 -5 20 -11 29
-13 20z m26 -280 c-3 -5 -2 -10 4 -10 5 0 11 3 14 8 2 4 2 1 0 -6 -1 -8 -3
-19 -3 -25 0 -7 -8 -17 -18 -24 -15 -9 -19 -8 -19 3 0 7 4 11 9 8 5 -3 6 8 3
25 -3 19 -1 31 5 31 6 0 8 -4 5 -10z"/>
<path d="M595 1751 c-3 -22 -3 -61 1 -88 7 -50 48 -143 63 -143 4 0 -3 22 -16
49 -20 39 -25 66 -26 135 -2 92 -11 111 -22 47z"/>
<path d="M183 1653 c1 -55 5 -99 10 -96 10 6 8 154 -3 178 -6 13 -8 -16 -7
-82z"/>
<path d="M502 1677 c-12 -13 -22 -27 -22 -32 0 -5 8 2 18 15 l17 25 6 -35 6
-35 2 43 c0 23 0 42 -2 42 -2 0 -13 -10 -25 -23z"/>
<path d="M891 1575 c1 -19 18 -51 18 -35 0 8 -4 22 -9 30 -5 8 -9 11 -9 5z"/>
<path d="M3 1535 c0 -22 2 -30 4 -17 2 12 2 30 0 40 -3 9 -5 -1 -4 -23z"/>
<path d="M2097 1467 c-27 -53 -70 -116 -101 -149 -51 -55 -139 -177 -152 -212
-6 -15 -8 -15 -20 1 -12 17 -13 16 -14 -6 0 -32 21 -101 32 -101 4 0 8 15 8
33 1 61 57 155 166 277 68 76 104 126 104 144 0 9 4 16 9 16 4 0 6 -12 3 -27
-4 -26 -3 -27 12 -12 10 9 19 39 23 72 9 85 -13 74 -70 -36z"/>
<path d="M781 1534 c0 -11 3 -14 6 -6 3 7 2 16 -1 19 -3 4 -6 -2 -5 -13z"/>
<path d="M2625 1500 c-4 -19 -20 -66 -37 -103 -16 -38 -28 -71 -25 -73 5 -5
57 108 57 125 0 6 4 11 9 11 6 0 12 -17 14 -37 3 -28 4 -24 5 17 0 30 -3 64
-7 75 -7 17 -9 15 -16 -15z"/>
<path d="M2184 1508 c-13 -21 -5 -148 10 -169 12 -17 13 -8 14 76 1 90 -7 120
-24 93z"/>
<path d="M27 1450 c-3 -11 -1 -22 3 -25 4 -3 6 -15 3 -28 -3 -12 -3 -19 0 -16
11 9 18 89 8 89 -5 0 -11 -9 -14 -20z"/>
<path d="M2686 1405 c3 -33 8 -62 10 -64 9 -10 3 96 -7 109 -7 11 -8 -3 -3
-45z"/>
<path d="M696 1415 c-9 -26 -7 -32 5 -12 6 10 9 21 6 23 -2 3 -7 -2 -11 -11z"/>
<path d="M1 1394 c0 -11 3 -14 6 -6 3 7 2 16 -1 19 -3 4 -6 -2 -5 -13z"/>
<path d="M276 1384 c-3 -9 -5 -46 -4 -82 l1 -67 6 64 c5 51 8 61 18 50 6 -8
13 -27 16 -44 3 -21 4 -16 6 18 0 30 -4 54 -13 63 -18 18 -22 18 -30 -2z"/>
<path d="M2133 1366 c-13 -13 -23 -26 -23 -30 0 -11 -76 -122 -104 -151 -16
-16 -35 -40 -43 -51 -15 -24 -25 -82 -16 -97 8 -13 23 13 23 40 0 12 15 41 33
65 17 24 50 69 71 101 43 62 56 70 56 32 0 -16 6 -25 15 -25 12 0 13 4 5 20
-5 11 -14 29 -20 40 -12 24 -12 30 -2 30 4 0 16 -20 27 -45 15 -36 25 -45 44
-45 l24 0 -26 24 c-15 14 -28 40 -32 62 -4 22 -7 42 -8 46 -1 4 -12 -3 -24
-16z"/>
<path d="M676 1365 c-9 -26 -7 -32 5 -12 6 10 9 21 6 23 -2 3 -7 -2 -11 -11z"/>
<path d="M2654 1314 c4 -62 25 -122 34 -95 2 7 -1 23 -7 35 -7 12 -16 44 -21
71 l-9 50 3 -61z"/>
<path d="M2731 1330 c-12 -17 -21 -37 -19 -44 2 -8 13 6 26 30 26 52 24 56 -7
14z"/>
<path d="M330 1302 c0 -14 62 -124 67 -119 5 5 -56 127 -63 127 -2 0 -4 -4 -4
-8z"/>
<path d="M12 1160 c0 -47 6 -123 13 -170 14 -85 14 -85 8 -15 -3 39 -9 115
-13 170 l-7 100 -1 -85z"/>
<path d="M2097 1224 c-19 -19 1 -24 103 -24 67 0 110 -4 110 -10 0 -16 30 -12
37 5 3 9 3 18 0 22 -9 8 -241 15 -250 7z"/>
<path d="M90 1162 c0 -34 4 -62 9 -62 9 0 3 109 -5 119 -2 2 -4 -23 -4 -57z"/>
<path d="M2067 1213 c-3 -5 -5 -48 -6 -97 -1 -49 -4 -93 -7 -98 -3 -4 0 -16 5
-25 11 -20 12 -19 16 77 4 67 4 70 15 70 6 0 10 -32 10 -75 0 -41 4 -75 9 -75
4 0 7 12 5 28 -2 15 0 51 3 80 6 51 7 53 32 47 14 -3 46 -1 71 4 44 9 43 9
-27 10 -45 1 -73 5 -73 12 0 6 13 9 33 7 17 -2 46 -1 62 3 19 5 -3 7 -57 6
-80 -2 -87 0 -82 16 5 17 -1 24 -9 10z"/>
<path d="M2401 1194 c0 -11 3 -14 6 -6 3 7 2 16 -1 19 -3 4 -6 -2 -5 -13z"/>
<path d="M2360 1165 c0 -28 1 -30 21 -28 11 2 29 -2 40 -7 15 -8 19 -7 19 5 0
10 -10 15 -30 15 -20 0 -30 5 -30 15 0 8 -4 15 -10 15 -5 0 -10 -7 -10 -15z"/>
<path d="M401 1154 c0 -11 3 -14 6 -6 3 7 2 16 -1 19 -3 4 -6 -2 -5 -13z"/>
<path d="M1757 1142 c-48 -53 -68 -186 -48 -319 12 -79 12 -85 -26 -263 -8
-36 10 -14 33 40 16 39 18 73 19 250 0 152 3 210 13 225 11 17 12 10 5 -45 -4
-36 -5 -92 -3 -125 3 -33 4 -107 4 -165 -1 -96 0 -102 12 -70 7 19 14 51 15
70 2 28 4 24 9 -20 l7 -55 1 60 c0 33 -3 85 -7 115 -5 30 -7 56 -6 58 2 2 14
-7 26 -19 16 -16 33 -22 51 -20 26 2 28 0 28 -31 1 -27 2 -30 11 -15 5 9 7 22
4 27 -8 14 -3 13 63 -9 31 -11 84 -22 117 -25 l60 -5 -50 10 c-83 17 -195 52
-195 61 0 5 -4 7 -9 3 -6 -3 -15 4 -21 16 -8 15 -9 19 -1 15 25 -16 8 14 -24
42 -19 17 -37 43 -41 57 -4 16 -10 23 -16 17 -13 -13 7 -59 37 -78 17 -11 25
-25 25 -46 l0 -29 -40 28 -41 28 5 75 c2 41 6 94 9 118 5 46 -1 52 -26 24z"/>
<path d="M2318 1114 c-5 -4 -8 -19 -8 -33 1 -23 2 -24 11 -8 11 19 9 53 -3 41z"/>
<path d="M2358 1075 c3 -20 0 -25 -17 -25 -26 0 -30 -9 -39 -91 l-7 -64 -85
-6 -85 -5 87 -2 c97 -2 95 -4 101 78 2 31 6 36 37 41 19 4 29 7 23 8 -16 1
-17 31 -2 31 5 0 7 -6 4 -12 -4 -7 1 -4 10 7 14 18 14 20 -2 27 -11 4 -13 7
-4 7 11 1 11 4 1 16 -19 22 -28 18 -22 -10z"/>
<path d="M2454 1078 c8 -28 -13 -88 -32 -89 -10 0 -12 -3 -4 -6 6 -2 10 -9 6
-14 -9 -15 6 -10 23 7 9 8 16 26 16 40 0 17 5 24 18 24 13 0 19 7 19 23 0 18
-2 19 -10 7 -8 -13 -11 -12 -25 5 -13 15 -15 16 -11 3z"/>
<path d="M101 1054 c0 -11 3 -14 6 -6 3 7 2 16 -1 19 -3 4 -6 -2 -5 -13z"/>
<path d="M421 1054 c0 -11 3 -14 6 -6 3 7 2 16 -1 19 -3 4 -6 -2 -5 -13z"/>
<path d="M2520 1050 c-11 -7 -5 -10 25 -10 22 -1 79 -2 128 -4 68 -2 87 0 87
10 0 11 -25 14 -112 14 -62 0 -120 -5 -128 -10z"/>
<path d="M1878 1044 c-5 -4 -8 -19 -8 -33 0 -18 3 -22 11 -14 6 6 9 21 7 33
-1 12 -6 18 -10 14z"/>
<path d="M1990 1003 c-58 -21 -100 -48 -100 -66 0 -19 1 -19 18 -4 10 9 43 28
75 42 31 15 57 28 57 31 0 5 -31 4 -50 -3z"/>
<path d="M2066 952 c-2 -4 -1 -14 5 -22 7 -12 9 -10 9 8 0 23 -5 28 -14 14z"/>
<path d="M333 905 c0 -22 2 -30 4 -17 2 12 2 30 0 40 -3 9 -5 -1 -4 -23z"/>
<path d="M1915 900 c3 -5 8 -10 11 -10 2 0 4 5 4 10 0 6 -5 10 -11 10 -5 0 -7
-4 -4 -10z"/>
<path d="M322 810 c0 -14 2 -19 5 -12 2 6 2 18 0 25 -3 6 -5 1 -5 -13z"/>
<path d="M1848 824 c-11 -10 19 -94 33 -94 4 0 2 21 -6 46 -15 50 -19 57 -27
48z"/>
<path d="M2150 802 c0 -9 238 -37 245 -30 3 3 -46 10 -108 17 -61 7 -118 14
-124 16 -7 3 -13 1 -13 -3z"/>
<path d="M2453 763 c15 -2 37 -2 50 0 12 2 0 4 -28 4 -27 0 -38 -2 -22 -4z"/>
<path d="M2548 753 c12 -2 32 -2 45 0 12 2 2 4 -23 4 -25 0 -35 -2 -22 -4z"/>
<path d="M2628 749 c12 -11 138 -21 127 -11 -5 6 -38 12 -72 14 -34 1 -59 0
-55 -3z"/>
<path d="M311 734 c0 -11 3 -14 6 -6 3 7 2 16 -1 19 -3 4 -6 -2 -5 -13z"/>
<path d="M1917 719 c13 -13 73 -29 73 -20 0 4 -18 12 -41 18 -22 6 -37 7 -32
2z"/>
<path d="M2097 704 c5 -12 -7 -19 -29 -15 -14 2 -9 -11 9 -24 16 -12 9 -40 -8
-30 -10 7 -12 -148 -3 -207 12 -72 19 -37 16 79 -2 65 -1 115 1 113 3 -3 8
-59 12 -125 6 -114 6 -121 -14 -139 -12 -11 -21 -23 -21 -28 0 -6 39 25 86 68
61 56 94 95 115 136 37 74 31 75 -10 3 -18 -31 -35 -53 -40 -51 -5 3 -12 -4
-17 -17 -5 -16 -9 -3 -13 48 -7 86 -21 73 -18 -18 1 -58 -1 -67 -23 -85 l-25
-20 -3 101 c-2 56 -1 111 2 123 6 24 68 48 84 32 6 -6 12 -6 16 0 12 19 -42
61 -83 66 -31 3 -38 1 -34 -10z m38 -4 c3 -5 -1 -10 -10 -10 -9 0 -13 5 -10
10 3 6 8 10 10 10 2 0 7 -4 10 -10z"/>
<path d="M2005 690 c3 -5 11 -10 16 -10 6 0 7 5 4 10 -3 6 -11 10 -16 10 -6 0
-7 -4 -4 -10z"/>
<path d="M2235 690 c3 -5 18 -10 33 -9 24 0 25 1 7 9 -28 12 -47 12 -40 0z"/>
<path d="M301 664 c0 -11 3 -14 6 -6 3 7 2 16 -1 19 -3 4 -6 -2 -5 -13z"/>
<path d="M2298 675 c-2 -2 -18 -5 -36 -7 -18 -1 -32 -5 -32 -9 0 -8 78 -4 86
4 3 3 1 8 -4 11 -5 3 -11 3 -14 1z"/>
<path d="M1790 651 c0 -18 12 -41 22 -41 6 0 5 6 -2 15 -6 8 -9 19 -5 25 3 5
1 10 -4 10 -6 0 -11 -4 -11 -9z"/>
<path d="M2320 640 c-6 -12 -8 -30 -3 -43 6 -19 8 -18 13 13 5 32 8 35 35 32
23 -2 27 -1 15 7 -24 17 -48 13 -60 -9z"/>
<path d="M602 643 c-6 -2 -10 -9 -6 -14 3 -5 -4 -9 -15 -9 -21 0 -29 -21 -23
-57 6 -30 20 -29 28 2 9 35 22 31 30 -10 9 -51 23 -34 16 21 -3 32 -1 45 6 40
6 -3 9 1 8 11 -3 19 -22 26 -44 16z m35 -9 c-3 -3 -12 -4 -19 -1 -8 3 -5 6 6
6 11 1 17 -2 13 -5z"/>
<path d="M2430 640 c0 -4 12 -10 26 -13 18 -3 22 -1 15 6 -13 13 -41 18 -41 7z"/>
<path d="M2521 631 c-11 -7 -5 -10 20 -13 28 -2 33 -7 31 -23 -3 -23 -3 -24 4
-87 4 -29 2 -48 -4 -48 -5 0 -13 -8 -16 -17 -4 -10 28 16 71 58 43 41 91 84
107 95 48 34 26 44 -92 44 -59 0 -113 -4 -121 -9z"/>
<path d="M292 605 c0 -16 2 -22 5 -12 2 9 2 23 0 30 -3 6 -5 -1 -5 -18z"/>
<path d="M775 602 c-22 -2 -46 -10 -52 -19 -8 -10 -13 -12 -13 -5 0 7 -9 12
-21 12 -11 0 -17 -5 -14 -10 4 -6 11 -8 16 -5 8 6 13 -8 10 -27 0 -5 9 -8 21
-8 12 0 18 -3 14 -7 -8 -8 -10 -9 -43 -13 -12 -1 -8 -5 12 -13 l30 -11 -25 -7
c-17 -5 -5 -7 38 -8 51 -1 62 2 62 15 0 9 7 22 15 28 8 6 17 25 21 42 7 36 -4
41 -71 36z m45 -39 c0 -8 -5 -11 -11 -7 -7 4 -25 7 -40 6 -26 -1 -36 7 -24 19
11 11 75 -4 75 -18z m-27 -60 c-7 -2 -21 -2 -30 0 -10 3 -4 5 12 5 17 0 24 -2
18 -5z"/>
<path d="M1805 590 c-3 -5 -1 -10 4 -10 6 0 11 5 11 10 0 6 -2 10 -4 10 -3 0
-8 -4 -11 -10z"/>
<path d="M2201 574 c0 -11 3 -14 6 -6 3 7 2 16 -1 19 -3 4 -6 -2 -5 -13z"/>
<path d="M293 490 c0 -47 2 -66 4 -42 2 23 2 61 0 85 -2 23 -4 4 -4 -43z"/>
<path d="M1894 514 c-18 -15 -18 -15 2 -5 12 6 24 7 28 4 3 -3 6 -1 6 5 0 16
-12 15 -36 -4z"/>
<path d="M2333 495 c0 -22 2 -30 4 -17 2 12 2 30 0 40 -3 9 -5 -1 -4 -23z"/>
<path d="M422 465 c0 -16 3 -39 8 -50 l9 -20 -1 20 c0 11 -4 34 -8 50 l-8 30
0 -30z"/>
<path d="M1621 458 c-14 -23 -14 -23 8 -4 22 20 25 26 13 26 -4 0 -13 -10 -21
-22z"/>
<path d="M584 454 c3 -11 8 -43 11 -72 3 -29 11 -65 19 -80 7 -15 16 -38 20
-52 3 -14 15 -36 26 -50 14 -18 9 -2 -14 53 -20 46 -37 105 -41 142 -3 36 -11
68 -17 71 -6 4 -8 -1 -4 -12z"/>
<path d="M794 458 c6 -21 2 -22 -26 -7 -12 6 -18 7 -14 1 6 -10 -22 -27 -38
-23 -5 1 -3 -6 4 -16 8 -10 16 -20 18 -23 2 -3 2 3 0 14 -3 20 37 42 47 26 4
-6 1 -10 -5 -10 -7 0 -9 -7 -6 -17 4 -9 -1 -25 -13 -37 -24 -26 -37 -66 -21
-66 6 0 8 -4 5 -10 -3 -5 -1 -10 4 -10 6 0 11 8 11 18 0 9 7 25 14 35 12 15
14 9 20 -53 4 -38 12 -70 17 -70 6 0 8 4 5 8 -9 15 -8 117 2 149 6 18 7 32 4
32 -4 -1 -16 -1 -26 0 -17 1 -16 4 8 26 26 24 35 42 15 29 -6 -3 -16 0 -21 7
-8 11 -9 10 -4 -3z"/>
<path d="M1790 460 c-9 -6 -10 -10 -3 -10 6 0 15 5 18 10 8 12 4 12 -15 0z"/>
<path d="M487 446 c-4 -10 -7 -25 -6 -34 0 -11 4 -9 10 7 5 13 8 29 6 35 -2 5
-6 2 -10 -8z"/>
<path d="M1711 434 c-19 -8 -32 -17 -29 -20 9 -9 71 11 76 24 5 15 -5 15 -47
-4z"/>
<path d="M2744 438 c-37 -63 -37 -63 -11 -33 25 28 33 45 23 45 -3 0 -8 -6
-12 -12z"/>
<path d="M863 415 c0 -8 4 -12 9 -9 5 3 6 10 3 15 -9 13 -12 11 -12 -6z"/>
<path d="M2342 315 c-2 -124 10 -182 23 -112 4 20 11 34 16 32 4 -3 15 7 23
22 8 16 37 50 66 77 28 26 49 50 47 53 -10 9 -63 -27 -90 -62 -16 -19 -32 -33
-37 -30 -5 3 -10 -7 -12 -22 -2 -14 -8 -28 -15 -30 -9 -3 -13 22 -16 94 l-3
98 -2 -120z"/>
<path d="M1874 405 c2 -5 10 -8 17 -6 8 2 20 4 27 4 6 0 12 3 12 7 0 4 -13 7
-30 6 -16 -1 -28 -5 -26 -11z"/>
<path d="M302 365 c0 -16 2 -22 5 -12 2 9 2 23 0 30 -3 6 -5 -1 -5 -18z"/>
<path d="M2382 360 c0 -14 2 -19 5 -12 2 6 2 18 0 25 -3 6 -5 1 -5 -13z"/>
<path d="M450 359 c0 -8 7 -24 16 -35 14 -18 15 -18 8 6 -8 31 -24 50 -24 29z"/>
<path d="M1713 352 c-55 -5 -37 -19 20 -16 28 2 63 3 76 4 13 0 22 2 19 5 -7
7 -73 11 -115 7z"/>
<path d="M2648 297 c-30 -46 -49 -67 -130 -143 -72 -68 -105 -114 -80 -114 4
0 16 15 26 34 10 19 47 60 82 92 57 51 142 159 132 169 -2 2 -16 -15 -30 -38z"/>
<path d="M311 315 c-1 -25 33 -100 49 -110 6 -4 1 13 -11 36 -12 24 -25 55
-30 69 -6 20 -7 21 -8 5z"/>
<path d="M1640 300 c-10 -6 22 -8 89 -5 57 3 106 7 109 10 10 9 -183 5 -198
-5z"/>
<path d="M2185 300 c-3 -5 -1 -10 4 -10 6 0 11 5 11 10 0 6 -2 10 -4 10 -3 0
-8 -4 -11 -10z"/>
<path d="M697 276 c-4 -10 -7 -25 -6 -34 0 -11 4 -9 10 7 5 13 8 29 6 35 -2 5
-6 2 -10 -8z"/>
<path d="M2149 273 c-13 -16 -12 -17 4 -4 16 13 21 21 13 21 -2 0 -10 -8 -17
-17z"/>
<path d="M1984 258 l-19 -23 23 19 c12 11 22 21 22 23 0 8 -8 2 -26 -19z"/>
<path d="M2191 264 c0 -11 3 -14 6 -6 3 7 2 16 -1 19 -3 4 -6 -2 -5 -13z"/>
<path d="M493 243 c-7 -16 -24 -41 -38 -57 -33 -38 -32 -46 1 -15 29 27 57 75
52 90 -2 5 -9 -3 -15 -18z"/>
<path d="M1637 259 c8 -8 16 -8 30 0 16 9 14 10 -11 11 -22 0 -27 -3 -19 -11z"/>
<path d="M1695 260 c4 -6 11 -8 16 -5 14 9 11 15 -7 15 -8 0 -12 -5 -9 -10z"/>
<path d="M761 193 c-1 -37 7 -63 21 -63 6 0 7 8 3 18 -4 9 -11 31 -15 47 l-8
30 -1 -32z"/>
<path d="M1899 178 c-19 -24 -33 -46 -31 -50 1 -5 -2 -8 -7 -8 -8 0 -51 -64
-51 -76 0 -2 7 -4 15 -4 8 0 15 6 15 13 0 7 21 44 46 82 25 39 48 73 50 78 15
22 -7 1 -37 -35z"/>
<path d="M2212 193 c17 -41 30 -53 17 -15 -6 18 -15 35 -20 38 -5 3 -4 -7 3
-23z"/>
<path d="M1780 200 c0 -5 21 -10 48 -9 35 0 42 3 27 9 -28 12 -75 12 -75 0z"/>
<path d="M2086 193 c-6 -14 -5 -15 5 -6 7 7 10 15 7 18 -3 3 -9 -2 -12 -12z"/>
<path d="M1031 153 c-24 -11 -22 -12 24 -8 28 2 69 4 93 4 23 1 42 5 42 11 0
14 -125 8 -159 -7z"/>
<path d="M1582 127 c-52 -5 -90 -13 -85 -18 9 -9 150 7 185 21 27 10 23 10
-100 -3z"/>
<path d="M1023 123 c-24 -2 -43 -9 -43 -15 0 -12 153 -5 215 10 35 9 30 10
-45 9 -47 0 -104 -2 -127 -4z"/>
<path d="M1085 89 c-61 -5 -70 -8 -36 -13 5 0 12 -4 16 -8 4 -4 19 -2 34 3 14
6 27 10 29 10 15 -5 52 1 52 7 0 5 -6 8 -12 8 -7 -1 -44 -4 -83 -7z"/>
<path d="M1570 80 c0 -5 7 -7 15 -4 8 4 15 8 15 10 0 2 -7 4 -15 4 -8 0 -15
-4 -15 -10z"/>
<path d="M1238 62 c-4 -12 1 -18 14 -19 17 -2 18 0 7 15 -8 9 -14 18 -15 20
-1 1 -4 -5 -6 -16z"/>
<path d="M1515 70 c3 -5 12 -7 20 -3 21 7 19 13 -6 13 -11 0 -18 -4 -14 -10z"/>
<path d="M1621 76 c10 -10 59 -14 59 -5 0 5 -14 9 -32 9 -17 0 -29 -2 -27 -4z"/>
<path d="M2337 59 c12 -12 25 -20 28 -17 3 3 -7 13 -22 23 l-28 17 22 -23z"/>
<path d="M1470 60 c0 -5 7 -7 15 -4 8 4 15 8 15 10 0 2 -7 4 -15 4 -8 0 -15
-4 -15 -10z"/>
</g>
</svg>
